<svg xmlns="http://www.w3.org/2000/svg" width="1000" height="700" viewBox="0 0 1000 700"><defs><pattern id="grid" width="50" height="50" patternUnits="userSpaceOnUse"><path d="M50 0H0V50" fill="none" stroke="#bbc4b6" stroke-width="1"/></pattern><linearGradient id="wall" x2="0" y2="1"><stop stop-color="#d9ded2"/><stop offset="1" stop-color="#bbc5b5"/></linearGradient></defs><rect width="1000" height="700" fill="url(#wall)"/><rect width="1000" height="700" fill="url(#grid)"/><path d="M0 570H1000V700H0Z" fill="#a8b3a1"/><path d="M0 570H1000" stroke="#8c9b86" stroke-width="3"/><path d="M355 70V148M355 70H746V222" fill="none" stroke="#83917c" stroke-width="22" stroke-linejoin="round"/><path d="M355 70V148M355 70H746V222" fill="none" stroke="#e7eadd" stroke-width="15" stroke-linejoin="round"/><rect x="210" y="150" width="330" height="445" rx="8" fill="#7d8977" opacity=".25" transform="translate(16 10)"/><rect x="210" y="150" width="330" height="435" rx="8" fill="#323c35"/><rect x="225" y="165" width="300" height="402" rx="3" fill="#18251e"/><rect x="242" y="190" width="266" height="49" rx="3" fill="#657663"/><g fill="#172d23"><rect x="257" y="203" width="27" height="20" rx="2"/><rect x="292" y="203" width="27" height="20" rx="2"/><rect x="327" y="203" width="27" height="20" rx="2"/><rect x="362" y="203" width="27" height="20" rx="2"/><rect x="397" y="203" width="27" height="20" rx="2"/><rect x="432" y="203" width="27" height="20" rx="2"/></g><rect x="242" y="310" width="266" height="46" rx="3" fill="#7e8d77"/><path d="M270 223V275Q270 290 286 290H320Q336 290 336 306V325M304 223V258Q304 271 320 271H374Q390 271 390 288V325M338 223V248Q338 257 353 257H440Q458 257 458 272V325" fill="none" stroke="#b8d38b" stroke-width="6"/><g fill="#27402c"><rect x="259" y="322" width="18" height="17"/><rect x="285" y="322" width="18" height="17"/><rect x="311" y="322" width="18" height="17"/><rect x="337" y="322" width="18" height="17"/><rect x="363" y="322" width="18" height="17"/><rect x="389" y="322" width="18" height="17"/><rect x="415" y="322" width="18" height="17"/><rect x="441" y="322" width="18" height="17"/></g><circle cx="485" cy="335" r="4" fill="#bded8b"/><rect x="242" y="387" width="266" height="92" rx="4" fill="#3d5141"/><g stroke="#172b21" stroke-width="5"><path d="M267 410H470M267 425H470M267 440H470M267 455H470"/></g><rect x="244" y="507" width="105" height="20" rx="2" fill="#bcc9b1"/><text x="256" y="521" font-family="monospace" font-size="11" fill="#263b2a">COMMS / 01</text><circle cx="746" cy="260" r="59" fill="#8e9c83" opacity=".3"/><circle cx="746" cy="251" r="56" fill="#edf0e6"/><circle cx="746" cy="251" r="32" fill="none" stroke="#cbd4c0" stroke-width="2"/><circle cx="746" cy="251" r="5" fill="#688d50"/><path d="M825 445H575V340" fill="none" stroke="#de7e33" stroke-width="5" stroke-linejoin="round"/><path d="m563 359 12-20 12 20" fill="none" stroke="#de7e33" stroke-width="5" stroke-linecap="round"/><rect x="644" y="414" width="250" height="58" rx="7" fill="#f1ad67"/><text x="664" y="439" font-family="system-ui,sans-serif" font-size="14" font-weight="700" fill="#34280f">LABEL PATCH LEADS</text><text x="664" y="458" font-family="system-ui,sans-serif" font-size="11" fill="#574225">Record port numbers before handover</text><path d="M711 149H818M711 142V156M818 142V156" stroke="#415a37" stroke-width="2"/><rect x="726" y="119" width="80" height="22" rx="3" fill="#dceacb"/><text x="735" y="134" font-family="monospace" font-size="11" fill="#32452a">AP / L01</text><text x="55" y="635" font-family="monospace" font-size="11" fill="#53624d" letter-spacing="2">NEILL DATA · SAMPLE INSTALLATION</text></svg>
